<svg width="100" height="100" viewBox="0 0 100 100" fill="none" xmlns="http://www.w3.org/2000/svg">
<path d="M60.7756 29.3572C70.8595 39.4411 70.8595 55.7904 60.7756 65.8743C50.6917 75.9582 34.3424 75.9582 24.2585 65.8743C14.1745 55.7904 14.1745 39.4411 24.2585 29.3571L40.3957 13.2199C41.5673 12.0483 43.4668 12.0483 44.6384 13.2199L60.7756 29.3572Z" fill="#CCEAE3"/>
<path d="M74.6232 52.4449C73.3518 49.1322 76.6767 42.1698 72.2509 41.9311C69.6001 41.7881 65.065 35.8372 61.9582 37.7833C60.5762 38.649 57.8506 40.9744 57.5088 42.7688C57.0532 45.1608 60.4815 48.0645 61.382 48.4648C62.3991 48.9168 66.6557 47.5735 67.4129 50.4884" stroke="url(#paint0_linear)" stroke-width="2" stroke-linecap="round" stroke-linejoin="round"/>
<path d="M54.7511 70.8542C48.8758 73.0159 44.084 71.7771 46.8992 68.0064C49.7143 64.2357 50.6754 58.1454 55.1567 62.1666" stroke="url(#paint1_linear)" stroke-width="2" stroke-linecap="round"/>
<path d="M73.2231 59.0321C78.4169 62.878 78.6145 62.9598 78.0823 65.4066C77.9451 66.0373 76.2102 66.9755 75.4613 67.1871C72.0782 68.5472 72.1243 70.9263 67.6614 65.264" stroke="#0EC79B" stroke-width="2" stroke-linecap="round" stroke-linejoin="round"/>
<path d="M67.0711 65.2976C69.3428 74.0424 63.2449 70.8393 61.663 68.3207C60.2981 67.2928 58.2322 68.2736 57.0371 66.9712C55.7506 65.5692 54.0947 63.8094 55.8215 61.9958C57.1631 60.5867 58.3364 60.0727 60.2334 59.5799" stroke="#0EC79B" stroke-width="2" stroke-linecap="round" stroke-linejoin="round"/>
<path d="M65.064 57.0248C64.6898 55.2892 63.9309 53.0976 65.1215 51.8018C66.0663 50.7736 70.0461 51.1458 71.608 51.433C73.4291 51.7679 73.4338 52.509 78.8518 53.9793C82.4569 54.9576 82.5909 57.3165 78.1416 62.3021" stroke="#0EC79B" stroke-width="2" stroke-linecap="round" stroke-linejoin="round"/>
<path d="M55.1661 65.2578C54.8736 66.0639 53.4391 67.4425 53.6948 68.3473C53.9655 69.3051 54.5409 70.2302 55.374 70.7396C56.255 71.2782 56.7517 71.2715 56.817 72.4197C56.8765 73.468 57.05 74.6801 57.4614 75.6538C58.1693 77.3292 61.8288 79.7975 62.5636 76.8726C63.2357 74.1973 66.1391 75.4829 67.4421 76.7912C69.4019 78.7587 72.7851 80.492 75.6406 79.8034C76.7352 79.5395 77.3161 78.6587 78.0402 77.8474C79.2047 76.5426 80.4583 74.8926 81.2267 73.3244C82.0383 71.6681 84.1371 69.258 81.2174 68.4993C80.0678 68.2006 77.5361 68.571 77.4408 66.8943" stroke="#0EC79B" stroke-width="2" stroke-linecap="round" stroke-linejoin="round"/>
<path d="M83.173 69.2635C85.6198 68.9763 87.6756 69.0795 88.4007 65.8603C89.3455 61.6655 84.4478 62.4912 84.0048 61.3774C82.784 58.3075 86.4488 57.2682 85.123 54.3304C82.7293 49.0265 80.7078 45.0003 74.9115 47.1045" stroke="#0EC79B" stroke-width="2" stroke-linecap="round" stroke-linejoin="round"/>
<path d="M72.5659 57.8863C71.152 53.8255 68.8938 55.7286 63.6872 57.7992C61.9539 58.5287 60.2161 59.1797 60.9398 61.5049C61.6635 63.8301 63.4326 63.7296 64.746 66.0213C66.0594 68.313 67.4933 62.3157 69.9861 64.5403C72.8078 67.0585 73.9799 61.9471 72.5659 57.8863Z" stroke="#0EC79B" stroke-width="2"/>
<path d="M44.0024 45.9919C44.0088 45.0198 42.3703 44.1636 40.6114 45.513C39.4866 46.1812 40.1956 49.5934 42.1399 49.6063C44.0842 49.6191 43.9959 46.9641 44.0024 45.9919Z" stroke="url(#paint2_linear)" stroke-width="2"/>
<path d="M55.1153 48.8169C54.3478 47.2563 52.9855 47.4417 51.6104 49.5714C51.2138 50.7354 50.4335 51.1192 50.4207 53.0634C50.4078 55.0077 52.3521 55.0206 53.5097 56.3893C54.6673 57.758 56.6373 53.8823 55.6716 52.9037C54.7058 51.9252 55.8827 50.3774 55.1153 48.8169Z" stroke="url(#paint3_linear)" stroke-width="2"/>
<path d="M44.8126 58.249C45.2092 57.085 43.2713 56.1 40.9433 55.3069C39.1453 54.6064 38.596 57.4302 38.0012 59.1762C37.4063 60.9222 39.3506 60.935 40.7 62.6939C42.0495 64.4527 44.416 59.413 44.8126 58.249Z" stroke="url(#paint4_linear)" stroke-width="2"/>
<path d="M50.5051 42.338C49.3384 43.0402 48.1387 42.3914 46.7875 39.9642C46.4173 38.2327 47.3056 38.4954 48.0563 37.4295C48.807 36.3637 50.1581 38.7908 51.4567 38.5131C52.7554 38.2354 51.6717 41.6359 50.5051 42.338Z" stroke="url(#paint5_linear)" stroke-width="2"/>
<path d="M33.0974 47.9184C34.8041 48.4588 33.055 51.9542 31.9116 50.8407C30.7681 49.7272 30.4076 48.0409 33.0974 47.9184Z" stroke="url(#paint6_linear)" stroke-width="2"/>
<defs>
<linearGradient id="paint0_linear" x1="65.65" y1="36.7672" x2="66.5928" y2="53.3581" gradientUnits="userSpaceOnUse">
<stop stop-color="#FF5C00"/>
<stop offset="1" stop-color="#FF0F00"/>
</linearGradient>
<linearGradient id="paint1_linear" x1="45.2141" y1="67.7223" x2="56.1585" y2="65.3821" gradientUnits="userSpaceOnUse">
<stop stop-color="#FF5C00"/>
<stop offset="1" stop-color="#FF0F00"/>
</linearGradient>
<linearGradient id="paint2_linear" x1="33.316" y1="55.8249" x2="55.718" y2="44.8085" gradientUnits="userSpaceOnUse">
<stop stop-color="#FF5C00"/>
<stop offset="1" stop-color="#FF0F00"/>
</linearGradient>
<linearGradient id="paint3_linear" x1="33.316" y1="55.8249" x2="55.718" y2="44.8085" gradientUnits="userSpaceOnUse">
<stop stop-color="#FF5C00"/>
<stop offset="1" stop-color="#FF0F00"/>
</linearGradient>
<linearGradient id="paint4_linear" x1="33.316" y1="55.8249" x2="55.718" y2="44.8085" gradientUnits="userSpaceOnUse">
<stop stop-color="#FF5C00"/>
<stop offset="1" stop-color="#FF0F00"/>
</linearGradient>
<linearGradient id="paint5_linear" x1="33.316" y1="55.8249" x2="55.718" y2="44.8085" gradientUnits="userSpaceOnUse">
<stop stop-color="#FF5C00"/>
<stop offset="1" stop-color="#FF0F00"/>
</linearGradient>
<linearGradient id="paint6_linear" x1="33.316" y1="55.8249" x2="55.718" y2="44.8085" gradientUnits="userSpaceOnUse">
<stop stop-color="#FF5C00"/>
<stop offset="1" stop-color="#FF0F00"/>
</linearGradient>
</defs>
</svg>
