<svg width="100" height="100" viewBox="0 0 100 100" fill="none" xmlns="http://www.w3.org/2000/svg">
<path d="M35.0137 20.6853H45.0137" stroke="#AFD8CE" stroke-width="3"/>
<path d="M35.0137 48.6853H45.0137" stroke="#AFD8CE" stroke-width="3"/>
<path d="M58.0137 34.6853H68.0137" stroke="#AFD8CE" stroke-width="3"/>
<path d="M58.0137 62.6853H68.0137" stroke="#AFD8CE" stroke-width="3"/>
<path d="M35.0137 76.6853H45.0137" stroke="#AFD8CE" stroke-width="3"/>
<path d="M81.0137 48.6853H91.0137" stroke="#AFD8CE" stroke-width="3"/>
<path d="M12.0137 34.6853H22.0137" stroke="#AFD8CE" stroke-width="3"/>
<path d="M12.0137 62.6853H22.0137" stroke="#AFD8CE" stroke-width="3"/>
<path d="M25.5137 32.6853L31.5137 22.6853" stroke="#AFD8CE" stroke-width="3"/>
<path d="M49.0137 46.2834L55.0137 36.2835" stroke="#AFD8CE" stroke-width="3"/>
<path d="M71.0137 61.2834L77.0137 51.2835" stroke="#AFD8CE" stroke-width="3"/>
<path d="M49.0137 19.2834L55.0137 9.28345" stroke="#AFD8CE" stroke-width="3"/>
<path d="M72.5132 32.8816L78.5132 22.8816" stroke="#AFD8CE" stroke-width="3"/>
<path d="M25.0137 61.2834L31.0137 51.2835" stroke="#AFD8CE" stroke-width="3"/>
<path d="M48.5137 74.8816L54.5137 64.8816" stroke="#AFD8CE" stroke-width="3"/>
<path d="M55.1997 32.5107L49.1997 22.5107" stroke="#AFD8CE" stroke-width="3"/>
<path d="M31.6997 46.1089L25.6997 36.1089" stroke="#AFD8CE" stroke-width="3"/>
<path d="M78.0137 75.2834L72.0136 65.2835" stroke="#AFD8CE" stroke-width="3"/>
<path d="M31.6997 19.1089L25.6997 9.10889" stroke="#AFD8CE" stroke-width="3"/>
<path d="M78.0132 47.2834L72.0131 37.2835" stroke="#AFD8CE" stroke-width="3"/>
<path d="M55.6997 61.1089L49.6997 51.1089" stroke="#AFD8CE" stroke-width="3"/>
<path d="M32.1997 74.7068L26.1997 64.7068" stroke="#AFD8CE" stroke-width="3"/>
<path d="M32.5137 23.1853C33.8944 23.1853 35.0137 22.066 35.0137 20.6853C35.0137 19.3046 33.8944 18.1853 32.5137 18.1853C31.133 18.1853 30.0137 19.3046 30.0137 20.6853C30.0137 22.066 31.133 23.1853 32.5137 23.1853Z" stroke="url(#paint0_linear)" stroke-width="2" stroke-miterlimit="10" stroke-linecap="round"/>
<path d="M47.5137 23.1853C48.8944 23.1853 50.0137 22.066 50.0137 20.6853C50.0137 19.3046 48.8944 18.1853 47.5137 18.1853C46.133 18.1853 45.0137 19.3046 45.0137 20.6853C45.0137 22.066 46.133 23.1853 47.5137 23.1853Z" stroke="url(#paint1_linear)" stroke-width="2" stroke-miterlimit="10" stroke-linecap="round"/>
<path d="M32.5137 51.1853C33.8944 51.1853 35.0137 50.066 35.0137 48.6853C35.0137 47.3046 33.8944 46.1853 32.5137 46.1853C31.133 46.1853 30.0137 47.3046 30.0137 48.6853C30.0137 50.066 31.133 51.1853 32.5137 51.1853Z" stroke="url(#paint2_linear)" stroke-width="2" stroke-miterlimit="10" stroke-linecap="round"/>
<path d="M47.5137 51.1853C48.8944 51.1853 50.0137 50.066 50.0137 48.6853C50.0137 47.3046 48.8944 46.1853 47.5137 46.1853C46.133 46.1853 45.0137 47.3046 45.0137 48.6853C45.0137 50.066 46.133 51.1853 47.5137 51.1853Z" stroke="url(#paint3_linear)" stroke-width="2" stroke-miterlimit="10" stroke-linecap="round"/>
<path d="M24.5137 37.1853C25.8944 37.1853 27.0137 36.066 27.0137 34.6853C27.0137 33.3046 25.8944 32.1853 24.5137 32.1853C23.133 32.1853 22.0137 33.3046 22.0137 34.6853C22.0137 36.066 23.133 37.1853 24.5137 37.1853Z" stroke="url(#paint4_linear)" stroke-width="2" stroke-miterlimit="10" stroke-linecap="round"/>
<path d="M47.5137 23.1853C46.133 23.1853 45.0137 22.066 45.0137 20.6853C45.0137 19.3046 46.133 18.1853 47.5137 18.1853C48.8944 18.1853 50.0137 19.3046 50.0137 20.6853C50.0137 22.066 48.8944 23.1853 47.5137 23.1853Z" stroke="url(#paint5_linear)" stroke-width="2" stroke-miterlimit="10" stroke-linecap="round"/>
<path d="M55.5137 37.1853C54.133 37.1853 53.0137 36.066 53.0137 34.6853C53.0137 33.3046 54.133 32.1853 55.5137 32.1853C56.8944 32.1853 58.0137 33.3046 58.0137 34.6853C58.0137 36.066 56.8944 37.1853 55.5137 37.1853Z" stroke="url(#paint6_linear)" stroke-width="2" stroke-miterlimit="10" stroke-linecap="round"/>
<path d="M32.5137 79.1853C33.8944 79.1853 35.0137 78.066 35.0137 76.6853C35.0137 75.3046 33.8944 74.1853 32.5137 74.1853C31.133 74.1853 30.0137 75.3046 30.0137 76.6853C30.0137 78.066 31.133 79.1853 32.5137 79.1853Z" stroke="url(#paint7_linear)" stroke-width="2" stroke-miterlimit="10" stroke-linecap="round"/>
<path d="M47.5137 79.1853C48.8944 79.1853 50.0137 78.066 50.0137 76.6853C50.0137 75.3046 48.8944 74.1853 47.5137 74.1853C46.133 74.1853 45.0137 75.3046 45.0137 76.6853C45.0137 78.066 46.133 79.1853 47.5137 79.1853Z" stroke="url(#paint8_linear)" stroke-width="2" stroke-miterlimit="10" stroke-linecap="round"/>
<path d="M24.5137 65.1853C25.8944 65.1853 27.0137 64.066 27.0137 62.6853C27.0137 61.3046 25.8944 60.1853 24.5137 60.1853C23.133 60.1853 22.0137 61.3046 22.0137 62.6853C22.0137 64.066 23.133 65.1853 24.5137 65.1853Z" stroke="url(#paint9_linear)" stroke-width="2" stroke-miterlimit="10" stroke-linecap="round"/>
<path d="M55.5137 65.1853C54.133 65.1853 53.0137 64.066 53.0137 62.6853C53.0137 61.3046 54.133 60.1853 55.5137 60.1853C56.8944 60.1853 58.0137 61.3046 58.0137 62.6853C58.0137 64.066 56.8944 65.1853 55.5137 65.1853Z" stroke="url(#paint10_linear)" stroke-width="2" stroke-miterlimit="10" stroke-linecap="round"/>
<path d="M70.5137 37.1853C71.8944 37.1853 73.0137 36.066 73.0137 34.6853C73.0137 33.3046 71.8944 32.1853 70.5137 32.1853C69.133 32.1853 68.0137 33.3046 68.0137 34.6853C68.0137 36.066 69.133 37.1853 70.5137 37.1853Z" stroke="url(#paint11_linear)" stroke-width="2" stroke-miterlimit="10" stroke-linecap="round"/>
<path d="M70.5137 65.1853C71.8944 65.1853 73.0137 64.066 73.0137 62.6853C73.0137 61.3046 71.8944 60.1853 70.5137 60.1853C69.133 60.1853 68.0137 61.3046 68.0137 62.6853C68.0137 64.066 69.133 65.1853 70.5137 65.1853Z" stroke="url(#paint12_linear)" stroke-width="2" stroke-miterlimit="10" stroke-linecap="round"/>
<path d="M70.5137 37.1853C69.133 37.1853 68.0137 36.066 68.0137 34.6853C68.0137 33.3046 69.133 32.1853 70.5137 32.1853C71.8944 32.1853 73.0137 33.3046 73.0137 34.6853C73.0137 36.066 71.8944 37.1853 70.5137 37.1853Z" stroke="url(#paint13_linear)" stroke-width="2" stroke-miterlimit="10" stroke-linecap="round"/>
<path d="M78.5137 51.1853C77.133 51.1853 76.0137 50.066 76.0137 48.6853C76.0137 47.3046 77.133 46.1853 78.5137 46.1853C79.8944 46.1853 81.0137 47.3046 81.0137 48.6853C81.0137 50.066 79.8944 51.1853 78.5137 51.1853Z" stroke="url(#paint14_linear)" stroke-width="2" stroke-miterlimit="10" stroke-linecap="round"/>
<defs>
<linearGradient id="paint0_linear" x1="29.8577" y1="20.6814" x2="35.1592" y2="20.6814" gradientUnits="userSpaceOnUse">
<stop stop-color="#FF5C00"/>
<stop offset="1" stop-color="#FF0F00"/>
</linearGradient>
<linearGradient id="paint1_linear" x1="44.8577" y1="20.6814" x2="50.1592" y2="20.6814" gradientUnits="userSpaceOnUse">
<stop stop-color="#FF5C00"/>
<stop offset="1" stop-color="#FF0F00"/>
</linearGradient>
<linearGradient id="paint2_linear" x1="29.8577" y1="48.6814" x2="35.1592" y2="48.6814" gradientUnits="userSpaceOnUse">
<stop stop-color="#FF5C00"/>
<stop offset="1" stop-color="#FF0F00"/>
</linearGradient>
<linearGradient id="paint3_linear" x1="44.8577" y1="48.6814" x2="50.1592" y2="48.6814" gradientUnits="userSpaceOnUse">
<stop stop-color="#FF5C00"/>
<stop offset="1" stop-color="#FF0F00"/>
</linearGradient>
<linearGradient id="paint4_linear" x1="21.8577" y1="34.6814" x2="27.1592" y2="34.6814" gradientUnits="userSpaceOnUse">
<stop stop-color="#FF5C00"/>
<stop offset="1" stop-color="#FF0F00"/>
</linearGradient>
<linearGradient id="paint5_linear" x1="50.1696" y1="20.6814" x2="44.8681" y2="20.6814" gradientUnits="userSpaceOnUse">
<stop stop-color="#FF5C00"/>
<stop offset="1" stop-color="#FF0F00"/>
</linearGradient>
<linearGradient id="paint6_linear" x1="58.1696" y1="34.6814" x2="52.8681" y2="34.6814" gradientUnits="userSpaceOnUse">
<stop stop-color="#FF5C00"/>
<stop offset="1" stop-color="#FF0F00"/>
</linearGradient>
<linearGradient id="paint7_linear" x1="29.8577" y1="76.6814" x2="35.1592" y2="76.6814" gradientUnits="userSpaceOnUse">
<stop stop-color="#FF5C00"/>
<stop offset="1" stop-color="#FF0F00"/>
</linearGradient>
<linearGradient id="paint8_linear" x1="44.8577" y1="76.6814" x2="50.1592" y2="76.6814" gradientUnits="userSpaceOnUse">
<stop stop-color="#FF5C00"/>
<stop offset="1" stop-color="#FF0F00"/>
</linearGradient>
<linearGradient id="paint9_linear" x1="21.8577" y1="62.6814" x2="27.1592" y2="62.6814" gradientUnits="userSpaceOnUse">
<stop stop-color="#FF5C00"/>
<stop offset="1" stop-color="#FF0F00"/>
</linearGradient>
<linearGradient id="paint10_linear" x1="58.1696" y1="62.6814" x2="52.8681" y2="62.6814" gradientUnits="userSpaceOnUse">
<stop stop-color="#FF5C00"/>
<stop offset="1" stop-color="#FF0F00"/>
</linearGradient>
<linearGradient id="paint11_linear" x1="67.8577" y1="34.6814" x2="73.1592" y2="34.6814" gradientUnits="userSpaceOnUse">
<stop stop-color="#FF5C00"/>
<stop offset="1" stop-color="#FF0F00"/>
</linearGradient>
<linearGradient id="paint12_linear" x1="67.8577" y1="62.6814" x2="73.1592" y2="62.6814" gradientUnits="userSpaceOnUse">
<stop stop-color="#FF5C00"/>
<stop offset="1" stop-color="#FF0F00"/>
</linearGradient>
<linearGradient id="paint13_linear" x1="73.1696" y1="34.6814" x2="67.8681" y2="34.6814" gradientUnits="userSpaceOnUse">
<stop stop-color="#FF5C00"/>
<stop offset="1" stop-color="#FF0F00"/>
</linearGradient>
<linearGradient id="paint14_linear" x1="81.1696" y1="48.6814" x2="75.8681" y2="48.6814" gradientUnits="userSpaceOnUse">
<stop stop-color="#FF5C00"/>
<stop offset="1" stop-color="#FF0F00"/>
</linearGradient>
</defs>
</svg>
