<svg width="100" height="100" viewBox="0 0 100 100" fill="none" xmlns="http://www.w3.org/2000/svg">
<path d="M60.7756 29.3572C70.8595 39.4411 70.8595 55.7904 60.7756 65.8743C50.6917 75.9582 34.3424 75.9582 24.2585 65.8743C14.1745 55.7904 14.1745 39.4411 24.2585 29.3571L40.3957 13.2199C41.5673 12.0483 43.4668 12.0483 44.6384 13.2199L60.7756 29.3572Z" fill="#CCEAE3"/>
<path d="M76.8445 86.4356L78.9336 82.8171" stroke="url(#paint0_linear)" stroke-miterlimit="10"/>
<path d="M71.359 85.6809L74.4927 80.2532" stroke="url(#paint1_linear)" stroke-miterlimit="10"/>
<path d="M66.9181 83.1169L70.0518 77.6892" stroke="url(#paint2_linear)" stroke-miterlimit="10"/>
<path d="M63.1772 53.2156L57.9791 55.9321" stroke="url(#paint3_linear)" stroke-miterlimit="10" stroke-linecap="round"/>
<path d="M47.1318 43.9519L46.943 49.8973" stroke="url(#paint4_linear)" stroke-miterlimit="10" stroke-linecap="round"/>
<path d="M28.4746 59.1738L33.1845 61.2287" stroke="url(#paint5_linear)" stroke-miterlimit="10" stroke-linecap="round"/>
<path d="M63.5217 78.7437L65.6108 75.1252" stroke="url(#paint6_linear)" stroke-miterlimit="10"/>
<path d="M59.3403 65.4741L56.7289 69.9972" stroke="url(#paint7_linear)" stroke-miterlimit="10"/>
<path d="M55.9438 61.1011L52.2879 67.4334" stroke="url(#paint8_linear)" stroke-miterlimit="10"/>
<path d="M51.6265 57.4021L47.0036 59.5577" stroke="url(#paint9_linear)" stroke-miterlimit="10" stroke-linecap="round"/>
<path d="M57.7761 43.4635C55.5123 43.9657 47.7273 54.8858 54.786 60.6077C57.9135 63.1429 60.4401 66.6151 61.2311 71.4508L61.4545 72.8161C62.8907 81.5965 69.6256 86.9079 77.6003 86.4069" stroke="url(#paint10_linear)" stroke-width="2" stroke-miterlimit="10" stroke-linecap="round"/>
<path d="M82.6742 81.0815C79.6958 72.5353 71.0533 68.462 61.9897 71.8886L60.6957 72.3779C50.5594 76.2101 40.9498 70.6619 39.2004 59.9675L38.9771 58.6023C37.6766 50.6519 41.0904 42.121 47.0925 36.6921" stroke="#0EC79B" stroke-width="2" stroke-miterlimit="10" stroke-linecap="round"/>
<path d="M78.9335 82.817L81.5449 78.2939" stroke="#0EC79B" stroke-miterlimit="10"/>
<path d="M74.4925 80.253L78.1484 73.9207" stroke="#0EC79B" stroke-miterlimit="10"/>
<path d="M70.0516 77.689L73.7075 71.3567" stroke="#0EC79B" stroke-miterlimit="10"/>
<path d="M65.6108 75.1249L68.2222 70.6018" stroke="#0EC79B" stroke-miterlimit="10"/>
<path d="M56.729 69.9971L54.6399 73.6155" stroke="#0EC79B" stroke-miterlimit="10"/>
<path d="M52.2881 67.4331L49.1544 72.8608" stroke="#0EC79B" stroke-miterlimit="10"/>
<path d="M39.2109 61.0894L36.6861 62.0439" stroke="#0EC79B" stroke-miterlimit="10" stroke-linecap="round"/>
<path d="M38.7407 54.325L33.5199 54.6075" stroke="#0EC79B" stroke-miterlimit="10" stroke-linecap="round"/>
<path d="M43.8701 64.9854L41.3452 65.9399" stroke="#0EC79B" stroke-miterlimit="10" stroke-linecap="round"/>
<path d="M47.0483 68.0266L46.014 70.7627" stroke="#0EC79B" stroke-miterlimit="10" stroke-linecap="round"/>
<path d="M40.0415 48.2761L35.1179 46.8758" stroke="#0EC79B" stroke-miterlimit="10" stroke-linecap="round"/>
<path d="M43.0528 42.1846L39.3635 39.2303" stroke="#0EC79B" stroke-miterlimit="10" stroke-linecap="round"/>
<defs>
<linearGradient id="paint0_linear" x1="77.9177" y1="84.6391" x2="76.9994" y2="84.109" gradientUnits="userSpaceOnUse">
<stop stop-color="#FF5C00"/>
<stop offset="1" stop-color="#FF0F00"/>
</linearGradient>
<linearGradient id="paint1_linear" x1="72.9553" y1="82.9783" x2="72.0371" y2="82.4482" gradientUnits="userSpaceOnUse">
<stop stop-color="#FF5C00"/>
<stop offset="1" stop-color="#FF0F00"/>
</linearGradient>
<linearGradient id="paint2_linear" x1="68.5144" y1="80.4144" x2="67.5962" y2="79.8842" gradientUnits="userSpaceOnUse">
<stop stop-color="#FF5C00"/>
<stop offset="1" stop-color="#FF0F00"/>
</linearGradient>
<linearGradient id="paint3_linear" x1="60.5911" y1="54.6016" x2="60.1092" y2="53.6794" gradientUnits="userSpaceOnUse">
<stop stop-color="#FF5C00"/>
<stop offset="1" stop-color="#FF0F00"/>
</linearGradient>
<linearGradient id="paint4_linear" x1="47.0684" y1="46.9152" x2="46.0264" y2="46.8821" gradientUnits="userSpaceOnUse">
<stop stop-color="#FF5C00"/>
<stop offset="1" stop-color="#FF0F00"/>
</linearGradient>
<linearGradient id="paint5_linear" x1="30.8394" y1="60.1715" x2="30.4156" y2="61.1427" gradientUnits="userSpaceOnUse">
<stop stop-color="#FF5C00"/>
<stop offset="1" stop-color="#FF0F00"/>
</linearGradient>
<linearGradient id="paint6_linear" x1="64.5949" y1="76.9472" x2="63.6767" y2="76.4171" gradientUnits="userSpaceOnUse">
<stop stop-color="#FF5C00"/>
<stop offset="1" stop-color="#FF0F00"/>
</linearGradient>
<linearGradient id="paint7_linear" x1="58.0637" y1="67.7477" x2="57.1455" y2="67.2175" gradientUnits="userSpaceOnUse">
<stop stop-color="#FF5C00"/>
<stop offset="1" stop-color="#FF0F00"/>
</linearGradient>
<linearGradient id="paint8_linear" x1="54.1458" y1="64.2778" x2="53.2275" y2="63.7477" gradientUnits="userSpaceOnUse">
<stop stop-color="#FF5C00"/>
<stop offset="1" stop-color="#FF0F00"/>
</linearGradient>
<linearGradient id="paint9_linear" x1="49.3113" y1="58.4479" x2="49.7507" y2="59.3903" gradientUnits="userSpaceOnUse">
<stop stop-color="#FF5C00"/>
<stop offset="1" stop-color="#FF0F00"/>
</linearGradient>
<linearGradient id="paint10_linear" x1="84.8599" y1="76.3192" x2="48.2548" y2="55.1853" gradientUnits="userSpaceOnUse">
<stop stop-color="#FF5C00"/>
<stop offset="1" stop-color="#FF0F00"/>
</linearGradient>
</defs>
</svg>
