<svg width="100" height="100" viewBox="0 0 100 100" fill="none" xmlns="http://www.w3.org/2000/svg">
<path d="M80.4032 48.5301C80.696 47.7551 80.305 46.8895 79.53 46.5968C78.755 46.3041 77.8895 46.6951 77.5968 47.4701L80.4032 48.5301ZM71.3079 54.6692C70.5729 55.0515 70.287 55.9571 70.6692 56.6921C71.0515 57.4271 71.9571 57.713 72.6921 57.3308L71.3079 54.6692ZM63.2435 32.2047C62.5282 32.6225 62.2869 33.5411 62.7047 34.2565C63.1225 34.9718 64.0411 35.2131 64.7565 34.7953L63.2435 32.2047ZM70.5929 28.5274C71.1603 27.9238 71.131 26.9745 70.5274 26.4071C69.9238 25.8397 68.9745 25.869 68.4071 26.4726L70.5929 28.5274ZM44.4282 19.5624C43.6342 19.3259 42.7989 19.7778 42.5624 20.5718C42.3259 21.3658 42.7778 22.2011 43.5718 22.4376L44.4282 19.5624ZM55.6505 31.6835C56.1499 32.3445 57.0905 32.4756 57.7516 31.9763C58.4126 31.4769 58.5437 30.5363 58.0443 29.8753L55.6505 31.6835ZM51.2078 35.5287C50.3953 35.6901 49.8674 36.4796 50.0287 37.2922C50.1901 38.1047 50.9796 38.6326 51.7922 38.4713L51.2078 35.5287ZM54.2922 37.9713C55.1047 37.8099 55.6326 37.0204 55.4713 36.2078C55.3099 35.3953 54.5204 34.8674 53.7078 35.0287L54.2922 37.9713ZM61.522 39.3416C61.3371 38.534 60.5327 38.0292 59.7251 38.2141C58.9176 38.3989 58.4128 39.2034 58.5976 40.011L61.522 39.3416ZM64.0214 54.3917C64.4535 55.0984 65.3768 55.321 66.0836 54.8888C66.7903 54.4566 67.0129 53.5333 66.5807 52.8266L64.0214 54.3917ZM63.6568 59.8713C64.4267 59.5655 64.803 58.6935 64.4972 57.9236C64.1914 57.1536 63.3194 56.7774 62.5495 57.0831L63.6568 59.8713ZM58.5287 60.076C57.7422 60.3363 57.3157 61.1848 57.576 61.9713C57.8363 62.7578 58.6848 63.1843 59.4713 62.924L58.5287 60.076ZM50.983 58.7827C51.1517 59.5938 51.946 60.1145 52.7571 59.9458C53.5682 59.777 54.0889 58.9827 53.9201 58.1717L50.983 58.7827ZM38.8063 40.7351C38.1077 40.2898 37.1804 40.4951 36.7351 41.1937C36.2898 41.8923 36.4951 42.8196 37.1937 43.2649L38.8063 40.7351ZM17.4562 34.8443C16.8179 34.3162 15.8724 34.4055 15.3443 35.0438C14.8162 35.6821 14.9055 36.6276 15.5438 37.1557L17.4562 34.8443ZM30.9104 45.1921C31.5688 44.6893 31.6949 43.7479 31.1921 43.0896C30.6893 42.4312 29.7479 42.3051 29.0896 42.8079L30.9104 45.1921ZM20.7547 51.1638C20.2929 51.8516 20.4761 52.7835 21.1638 53.2453C21.8516 53.7071 22.7835 53.5239 23.2453 52.8362L20.7547 51.1638ZM50.2607 66.7928C50.9747 66.3727 51.2129 65.4534 50.7928 64.7393C50.3727 64.0253 49.4534 63.7871 48.7393 64.2072L50.2607 66.7928ZM36.9431 72.9355C36.3553 73.5192 36.3519 74.469 36.9355 75.0569C37.5192 75.6447 38.469 75.6481 39.0569 75.0645L36.9431 72.9355ZM58.8077 65.3705C58.1646 64.8482 57.22 64.946 56.6976 65.589C56.1753 66.232 56.2731 67.1767 56.9161 67.699L58.8077 65.3705ZM67.2134 78.1943C67.6266 78.9123 68.5437 79.1593 69.2617 78.7461C69.9797 78.3329 70.2267 77.4158 69.8135 76.6978L67.2134 78.1943ZM72.6453 58.6459C71.8975 58.2895 71.0023 58.6068 70.6459 59.3547C70.2895 60.1025 70.6068 60.9977 71.3547 61.3541L72.6453 58.6459ZM83.5608 65.0132C84.3893 65.0132 85.0608 64.3416 85.0608 63.5132C85.0608 62.6848 84.3893 62.0132 83.5608 62.0132V65.0132ZM77.5968 47.4701C76.6828 49.8898 74.4628 53.0284 71.3079 54.6692L72.6921 57.3308C76.6382 55.2785 79.2883 51.482 80.4032 48.5301L77.5968 47.4701ZM64.7565 34.7953C66.4196 33.824 67.346 32.791 68.1471 31.7054C68.9473 30.6212 69.4906 29.7 70.5929 28.5274L68.4071 26.4726C67.1423 27.818 66.3728 29.0575 65.7333 29.9241C65.0947 30.7893 64.4547 31.4974 63.2435 32.2047L64.7565 34.7953ZM43.5718 22.4376C48.2169 23.8212 52.7071 27.787 55.6505 31.6835L58.0443 29.8753C54.9011 25.7142 49.9274 21.2004 44.4282 19.5624L43.5718 22.4376ZM51.7922 38.4713C52.2166 38.387 52.6318 38.3037 53.0452 38.2207C53.4591 38.1376 53.8712 38.0549 54.2922 37.9713L53.7078 35.0287C53.2834 35.113 52.8682 35.1963 52.4548 35.2793C52.0409 35.3624 51.6288 35.4451 51.2078 35.5287L51.7922 38.4713ZM58.5976 40.011C59.4516 43.7414 61.0158 49.4767 64.0214 54.3917L66.5807 52.8266C63.8378 48.3411 62.3588 42.9972 61.522 39.3416L58.5976 40.011ZM62.5495 57.0831C61.3797 57.5477 60.5282 58.4049 59.9408 58.9777C59.2583 59.6434 58.9011 59.9527 58.5287 60.076L59.4713 62.924C60.6205 62.5437 61.4695 61.6773 62.0355 61.1254C62.6966 60.4806 63.1358 60.0782 63.6568 59.8713L62.5495 57.0831ZM53.9201 58.1717C53.1109 54.2821 50.6501 50.7898 47.8134 47.8864C44.9599 44.9658 41.6075 42.5207 38.8063 40.7351L37.1937 43.2649C39.8832 44.9793 43.0308 47.2842 45.6676 49.9829C48.3211 52.6988 50.3406 55.6951 50.983 58.7827L53.9201 58.1717ZM29.0693 37.0059C27.9338 36.9157 26.8135 36.929 25.7753 36.941C24.7146 36.9532 23.7392 36.9639 22.7797 36.8883C20.9145 36.7414 19.1825 36.2726 17.4562 34.8443L15.5438 37.1557C17.8752 39.0847 20.2551 39.6987 22.544 39.8791C23.6616 39.9671 24.7738 39.9527 25.8098 39.9408C26.8684 39.9286 27.8539 39.9188 28.8318 39.9965L29.0693 37.0059ZM29.0896 42.8079C27.9178 43.7029 26.2045 45.2494 24.6285 46.8074C23.0725 48.3455 21.5235 50.0188 20.7547 51.1638L23.2453 52.8362C23.8291 51.9668 25.1811 50.4794 26.7375 48.9409C28.2739 47.4221 29.8843 45.9758 30.9104 45.1921L29.0896 42.8079ZM48.7393 64.2072C44.1198 66.9251 40.4486 69.4551 36.9431 72.9355L39.0569 75.0645C42.3143 71.8303 45.7503 69.4466 50.2607 66.7928L48.7393 64.2072ZM56.9161 67.699C58.7558 69.1935 60.8722 71.0074 62.7706 72.8718C64.6881 74.7549 66.303 76.6125 67.2134 78.1943L69.8135 76.6978C68.695 74.7544 66.8439 72.6672 64.8727 70.7313C62.8825 68.7768 60.6875 66.8976 58.8077 65.3705L56.9161 67.699ZM71.3547 61.3541C73.5315 62.3915 75.8564 63.2971 77.975 63.9462C80.0598 64.5849 82.0652 65.0132 83.5608 65.0132V62.0132C82.5204 62.0132 80.8588 61.6921 78.8539 61.0778C76.8828 60.4739 74.6953 59.6229 72.6453 58.6459L71.3547 61.3541Z" fill="#AFD8CE"/>
<path d="M13.9033 37.3262C15.6774 37.3262 17.1157 35.8982 17.1157 34.1367C17.1157 32.3752 15.6774 30.9473 13.9033 30.9473C12.1291 30.9473 10.6909 32.3752 10.6909 34.1367C10.6909 35.8982 12.1291 37.3262 13.9033 37.3262Z" stroke="url(#paint0_linear)" stroke-miterlimit="10" stroke-linecap="round"/>
<path d="M19.6518 57.6379C21.426 57.6379 22.8642 56.21 22.8642 54.4485C22.8642 52.687 21.426 51.259 19.6518 51.259C17.8777 51.259 16.4395 52.687 16.4395 54.4485C16.4395 56.21 17.8777 57.6379 19.6518 57.6379Z" stroke="url(#paint1_linear)" stroke-miterlimit="10" stroke-linecap="round"/>
<path d="M35.5444 78.9569C37.3185 78.9569 38.7568 77.5289 38.7568 75.7675C38.7568 74.006 37.3185 72.578 35.5444 72.578C33.7703 72.578 32.332 74.006 32.332 75.7675C32.332 77.5289 33.7703 78.9569 35.5444 78.9569Z" stroke="url(#paint2_linear)" stroke-miterlimit="10" stroke-linecap="round"/>
<path d="M71.2124 82.3789C72.9865 82.3789 74.4247 80.9509 74.4247 79.1894C74.4247 77.428 72.9865 76 71.2124 76C69.4382 76 68 77.428 68 79.1894C68 80.9509 69.4382 82.3789 71.2124 82.3789Z" stroke="url(#paint3_linear)" stroke-miterlimit="10" stroke-linecap="round"/>
<path d="M86.0971 64.6883C87.8713 64.6883 89.3095 63.2604 89.3095 61.4989C89.3095 59.7374 87.8713 58.3094 86.0971 58.3094C84.323 58.3094 82.8848 59.7374 82.8848 61.4989C82.8848 63.2604 84.323 64.6883 86.0971 64.6883Z" stroke="url(#paint4_linear)" stroke-miterlimit="10" stroke-linecap="round"/>
<path d="M79.6723 47.9017C81.4465 47.9017 82.8847 46.4738 82.8847 44.7123C82.8847 42.9508 81.4465 41.5228 79.6723 41.5228C77.8982 41.5228 76.46 42.9508 76.46 44.7123C76.46 46.4738 77.8982 47.9017 79.6723 47.9017Z" stroke="url(#paint5_linear)" stroke-miterlimit="10" stroke-linecap="round"/>
<path d="M71.0498 27.7579C72.8239 27.7579 74.2621 26.33 74.2621 24.5685C74.2621 22.807 72.8239 21.379 71.0498 21.379C69.2756 21.379 67.8374 22.807 67.8374 24.5685C67.8374 26.33 69.2756 27.7579 71.0498 27.7579Z" stroke="url(#paint6_linear)" stroke-miterlimit="10" stroke-linecap="round"/>
<path d="M40.6167 23.0576C42.3908 23.0576 43.829 21.6296 43.829 19.8682C43.829 18.1067 42.3908 16.6787 40.6167 16.6787C38.8425 16.6787 37.4043 18.1067 37.4043 19.8682C37.4043 21.6296 38.8425 23.0576 40.6167 23.0576Z" stroke="url(#paint7_linear)" stroke-miterlimit="10" stroke-linecap="round"/>
<path d="M59.0455 39.5084C61.6601 39.5084 63.7796 37.404 63.7796 34.8081C63.7796 32.2123 61.6601 30.1079 59.0455 30.1079C56.431 30.1079 54.3115 32.2123 54.3115 34.8081C54.3115 37.404 56.431 39.5084 59.0455 39.5084Z" stroke="url(#paint8_linear)" stroke-width="2" stroke-miterlimit="10" stroke-linecap="round"/>
<path d="M67.8375 62.1703C70.4521 62.1703 72.5716 60.0659 72.5716 57.47C72.5716 54.8741 70.4521 52.7698 67.8375 52.7698C65.223 52.7698 63.1035 54.8741 63.1035 57.47C63.1035 60.0659 65.223 62.1703 67.8375 62.1703Z" stroke="url(#paint9_linear)" stroke-width="2" stroke-miterlimit="10" stroke-linecap="round"/>
<path d="M54.1427 67.8778C56.7572 67.8778 58.8767 65.7734 58.8767 63.1775C58.8767 60.5817 56.7572 58.4773 54.1427 58.4773C51.5282 58.4773 49.4087 60.5817 49.4087 63.1775C49.4087 65.7734 51.5282 67.8778 54.1427 67.8778Z" stroke="url(#paint10_linear)" stroke-width="2" stroke-miterlimit="10" stroke-linecap="round"/>
<path d="M33.3468 45.7194C35.9613 45.7194 38.0808 43.6151 38.0808 41.0192C38.0808 38.4233 35.9613 36.319 33.3468 36.319C30.7323 36.319 28.6128 38.4233 28.6128 41.0192C28.6128 43.6151 30.7323 45.7194 33.3468 45.7194Z" stroke="url(#paint11_linear)" stroke-width="2" stroke-miterlimit="10" stroke-linecap="round"/>
<path d="M48.2124 40.3789C49.9865 40.3789 51.4247 38.9509 51.4247 37.1894C51.4247 35.428 49.9865 34 48.2124 34C46.4382 34 45 35.428 45 37.1894C45 38.9509 46.4382 40.3789 48.2124 40.3789Z" stroke="url(#paint12_linear)" stroke-miterlimit="10" stroke-linecap="round"/>
<path d="M85.4999 33.8287C85.3951 33.8287 85.2902 33.8287 85.1854 33.8287C81.9004 33.6574 79.2795 31.0197 79.1746 27.7997C79.1047 25.9499 79.9085 24.2029 81.3063 22.9697V12.2819C81.3063 10.0211 83.1934 8.17126 85.4999 8.17126C87.8063 8.17126 89.6934 10.0211 89.6934 12.2819V23.0039C91.0214 24.1686 91.8252 25.8472 91.8252 27.6284C91.8252 29.3412 91.1262 30.917 89.8682 32.1159C88.68 33.2121 87.1424 33.8287 85.4999 33.8287Z" stroke="#0EC79B" stroke-width="2" stroke-miterlimit="10"/>
<path d="M85.5001 10.5692C84.5216 10.5692 83.7528 11.3228 83.7528 12.282V24.1687L83.2286 24.5112C82.1802 25.2649 81.5861 26.4638 81.6211 27.697C81.691 29.6153 83.3335 31.2939 85.2904 31.3624C86.3738 31.3966 87.3872 31.0541 88.156 30.3347C88.9249 29.6153 89.3442 28.6219 89.3442 27.5942C89.3442 26.3953 88.7501 25.2306 87.7367 24.5112L87.2125 24.1687V12.282C87.2474 11.3228 86.4437 10.5692 85.5001 10.5692Z" fill="#FF7B43"/>
<defs>
<linearGradient id="paint0_linear" x1="10.4906" y1="34.1317" x2="17.3027" y2="34.1317" gradientUnits="userSpaceOnUse">
<stop stop-color="#FF5C00"/>
<stop offset="1" stop-color="#FF0F00"/>
</linearGradient>
<linearGradient id="paint1_linear" x1="16.2391" y1="54.4435" x2="23.0512" y2="54.4435" gradientUnits="userSpaceOnUse">
<stop stop-color="#FF5C00"/>
<stop offset="1" stop-color="#FF0F00"/>
</linearGradient>
<linearGradient id="paint2_linear" x1="32.1317" y1="75.7624" x2="38.9438" y2="75.7624" gradientUnits="userSpaceOnUse">
<stop stop-color="#FF5C00"/>
<stop offset="1" stop-color="#FF0F00"/>
</linearGradient>
<linearGradient id="paint3_linear" x1="67.7996" y1="79.1844" x2="74.6117" y2="79.1844" gradientUnits="userSpaceOnUse">
<stop stop-color="#FF5C00"/>
<stop offset="1" stop-color="#FF0F00"/>
</linearGradient>
<linearGradient id="paint4_linear" x1="82.6844" y1="61.4939" x2="89.4965" y2="61.4939" gradientUnits="userSpaceOnUse">
<stop stop-color="#FF5C00"/>
<stop offset="1" stop-color="#FF0F00"/>
</linearGradient>
<linearGradient id="paint5_linear" x1="76.2596" y1="44.7072" x2="83.0717" y2="44.7072" gradientUnits="userSpaceOnUse">
<stop stop-color="#FF5C00"/>
<stop offset="1" stop-color="#FF0F00"/>
</linearGradient>
<linearGradient id="paint6_linear" x1="67.637" y1="24.5634" x2="74.4491" y2="24.5634" gradientUnits="userSpaceOnUse">
<stop stop-color="#FF5C00"/>
<stop offset="1" stop-color="#FF0F00"/>
</linearGradient>
<linearGradient id="paint7_linear" x1="37.2039" y1="19.8631" x2="44.016" y2="19.8631" gradientUnits="userSpaceOnUse">
<stop stop-color="#FF5C00"/>
<stop offset="1" stop-color="#FF0F00"/>
</linearGradient>
<linearGradient id="paint8_linear" x1="54.0163" y1="34.8007" x2="64.0551" y2="34.8007" gradientUnits="userSpaceOnUse">
<stop stop-color="#FF5C00"/>
<stop offset="1" stop-color="#FF0F00"/>
</linearGradient>
<linearGradient id="paint9_linear" x1="62.8083" y1="57.4626" x2="72.8471" y2="57.4626" gradientUnits="userSpaceOnUse">
<stop stop-color="#FF5C00"/>
<stop offset="1" stop-color="#FF0F00"/>
</linearGradient>
<linearGradient id="paint10_linear" x1="49.1134" y1="63.1701" x2="59.1523" y2="63.1701" gradientUnits="userSpaceOnUse">
<stop stop-color="#FF5C00"/>
<stop offset="1" stop-color="#FF0F00"/>
</linearGradient>
<linearGradient id="paint11_linear" x1="28.3175" y1="41.0118" x2="38.3564" y2="41.0118" gradientUnits="userSpaceOnUse">
<stop stop-color="#FF5C00"/>
<stop offset="1" stop-color="#FF0F00"/>
</linearGradient>
<linearGradient id="paint12_linear" x1="44.7996" y1="37.1844" x2="51.6117" y2="37.1844" gradientUnits="userSpaceOnUse">
<stop stop-color="#FF5C00"/>
<stop offset="1" stop-color="#FF0F00"/>
</linearGradient>
</defs>
</svg>
